<?xml version="1.0" encoding="utf-8"?>
<!-- Generator: Adobe Illustrator 26.0.3, SVG Export Plug-In . SVG Version: 6.00 Build 0)  -->
<svg version="1.1" id="Layer_1" xmlns="http://www.w3.org/2000/svg" xmlns:xlink="http://www.w3.org/1999/xlink" x="0px" y="0px"
	 viewBox="0 0 265 35" style="enable-background:new 0 0 265 35;" xml:space="preserve">
<style type="text/css">
	.st0{fill:#FFFF00;}
</style>
<g>
</g>
<g>
	<g>
		<path d="M123.91,25.95v-8.09c1.67-0.14,2.73-1.35,2.73-3.17v-2.3c0-1.88-1.04-3.08-2.73-3.22V8.15c0-2.33-1.44-3.83-3.67-3.83
			h-2.18c-1.87,0-3.19,1.12-3.51,2.97l-0.35,1.9c-0.27,0.04-0.52,0.14-0.76,0.26c0.32-0.54,0.53-1.23,0.53-2.19V4.42
			c0-3.83-3.21-3.83-4.42-3.83h-1.47c-0.79,0-2.42,0.01-3.48,1.04c-0.5-0.36-1.11-0.57-1.77-0.57H91.89c-1.11,0-3.71,0.39-3.71,3.95
			v6.54c-1.33-1.5-3.77-2.79-8.25-2.79c-4.85,0.02-7.3,1.72-8.52,3.64c-1.13-1.83-3.57-3.64-8.87-3.64
			c-5.28,0.02-7.71,2.04-8.82,4.16c-1.45-2.73-4.19-4.16-9.19-4.16l-0.31,0c-3.91,0.05-6.44,0.95-8.04,2.66
			c-0.12-0.96-0.71-2.66-3.46-2.66h-0.2c-1.93,0-3.66,0.68-5,1.91c-1.29-1.37-2.95-1.91-4.33-1.91c-0.77,0-1.43,0.17-1.97,0.48
			C20.69,3.41,18.4,0.6,10.74,0.6C0,0.6,0,7.09,0,17.82C0,28.9,0,35,10.72,35c4.41,0,7.22-1.06,8.84-3.67
			c0.25,3.32,3.14,3.33,4.42,3.33h1.49c1.2,0,4.4,0,4.4-3.79V20.14c0-0.29,0-0.78,1-0.78c0.15,0.01,0.55,0.12,0.79,0.19
			c0.47,0.13,0.91,0.26,1.37,0.26c0.2,0,0.39-0.02,0.58-0.06c-0.03,0.7-0.05,1.43-0.05,2.19c0,8.27,1.78,13.07,10.87,13.07h0.18
			c4.78-0.09,7.47-1.52,8.95-4.1c0.59,1.38,1.57,2.24,2.45,2.76c1.54,0.92,3.6,1.34,6.46,1.34h0.12c4.29-0.02,7.21-1.14,8.76-3.35
			c0.59,0.95,1.35,1.59,2.06,2C74.95,34.57,77,35,79.87,35h0.12c3.95-0.02,6.74-0.98,8.37-2.85c0.42,1.56,1.63,2.49,3.39,2.49h3.11
			c2.4,0,3.69-2.1,3.69-4.07v-7.29h3.54c0.55,0,1.06-0.15,1.5-0.4v7.99c0,3.79,3.26,3.79,4.48,3.79h1.47c1.32,0,4.42,0,4.42-3.79
			v-1.01c0.65,2.62,2.41,4.78,6.91,4.78h2.2c2.26,0,3.61-1.32,3.61-3.53v-2.2C126.68,27.15,125.59,26,123.91,25.95z"/>
		<path d="M254.47,30.87c0,3.79,3.41,3.79,4.63,3.79h1.49c1.21,0,4.42,0,4.42-3.79V17.02c0-5.46-2.65-8.24-7.87-8.27h-0.11
			c-2.23,0-4.07,0.47-5.49,1.39c-1.31-1-2.74-1.39-3.84-1.39c-2.31,0-3.75,1.45-3.75,3.77v0.13c-1.49-2.56-4.2-3.9-9.04-3.9l-0.31,0
			c-4.2,0.05-6.79,1.1-8.38,3.07c-0.19-1.55-1.18-2.53-2.69-2.65V8.15c0-2.33-1.44-3.83-3.67-3.83h-2.18
			c-1.87,0-3.19,1.11-3.51,2.97l-0.35,1.9c-0.08,0.01-0.15,0.04-0.23,0.06V3.83c0-2.54-1.49-3.83-4.42-3.83h-1.51
			c-1.21,0-4.44,0-4.44,3.79V8.9c-0.36-0.09-0.78-0.15-1.26-0.15h-0.2c-1.93,0-3.66,0.68-5,1.91c-1.29-1.37-2.95-1.91-4.33-1.91
			c-2.08,0-3.38,1.18-3.6,3.16c-1.54-2.22-4.42-3.16-9.04-3.16c-6.1,0-8.54,2.3-9.45,4.62c-1-3.05-3.46-4.6-7.35-4.62l-0.15,0
			c-0.97,0-1.86,0.09-2.68,0.28V3.83c0-2.54-1.49-3.83-4.42-3.83h-1.51c-1.21,0-4.4,0-4.44,3.73c-1.5-2.1-4.16-3.12-8.8-3.12
			c-10.74,0-10.74,6.48-10.74,17.22c0,11.08,0,17.18,10.72,17.18c4.42,0,7.23-1.06,8.84-3.67c0.26,3.32,3.25,3.33,4.42,3.33h1.51
			c1.21,0,4.67,0,4.67-3.79c0,3.79,3.32,3.79,4.54,3.79h1.49c1.05,0,3.61,0,4.26-2.49c1.36,1.66,3.64,2.83,7.39,2.83
			c2.07,0,3.86-0.43,5.18-1.21c1.45,0.81,3.22,0.85,3.49,0.85h0.51c1,0,1.84-0.43,2.37-1.1c1.02,1.12,2.69,1.12,3.57,1.12h1.49
			c1.2,0,4.4,0,4.4-3.79V20.14c0-0.29,0-0.78,1-0.78c0.15,0.01,0.55,0.12,0.79,0.19c0.47,0.13,0.91,0.26,1.37,0.26
			c0.33,0,0.65-0.07,0.95-0.16v10.79c0,3.67,2.22,4.22,3.55,4.22h3.09c1.39,0,3.73-0.53,3.73-4.07v-0.71
			c0.65,2.62,2.41,4.78,6.91,4.78h2.2c1.97,0,3.25-1.01,3.54-2.74c1.61,2.01,4.27,3.1,8.58,3.1h0.18c4.78-0.09,7.48-1.52,8.96-4.11
			c0.02,3.76,3.26,3.76,4.48,3.76h1.47C251.2,34.66,254.47,34.66,254.47,30.87z"/>
	</g>
	<path class="st0" d="M19.32,22.22c0,8.95-2.44,10.72-8.6,10.72c-8.28,0-8.7-3.23-8.7-15.12c0-11.55,0.28-15.16,8.72-15.16
		c7.03,0,8.58,2.04,8.58,9.94c0,0.89-0.2,1.29-1.19,1.29h-3.57c-0.79,0-1.45-0.12-1.45-1.53v-1.59c0-2.28-0.42-3-2.22-3
		c-2.14,0-2.32,1.13-2.32,4.88V23c0,3.81,0.18,4.84,2.32,4.84c1.7,0,2.22-0.85,2.22-2.98v-2.04c0-1.39,0.65-1.53,1.45-1.53h3.57
		C19.12,21.29,19.32,21.69,19.32,22.22z"/>
	<path class="st0" d="M21.56,12.52c0-1.47,0.71-1.71,1.62-1.71c1.33,0,3.41,0.83,4.14,3.73c0.79-2.06,2.5-3.73,5.19-3.73h0.2
		c0.87,0,1.47,0.12,1.47,1.03v4.6c0,0.79-0.52,1.31-1.15,1.31c-0.44,0-1.45-0.44-2.16-0.44c-1.68,0-3.03,0.97-3.03,2.84v10.72
		c0,1.43-0.48,1.73-2.38,1.73h-1.49c-1.94,0-2.42-0.3-2.42-1.73V12.52z"/>
	<path class="st0" d="M44.58,32.94c-7.45,0.04-8.99-3-8.99-11.01c0-8.63,1.86-11.05,8.66-11.13c7.51-0.08,8.96,2.92,8.96,11.05
		C53.2,30.32,51.26,32.82,44.58,32.94z M46.64,18.93c0-2.42-0.36-3.43-2.24-3.43c-1.88,0-2.28,0.99-2.28,3.45v5.93
		c0,2.44,0.48,3.37,2.34,3.37c1.7,0,2.18-0.93,2.18-3.39V18.93z"/>
	<path class="st0" d="M62.55,10.81c4.75-0.02,7.79,1.63,7.79,4.92c0,0.85-0.04,1.63-1.33,1.63h-2.91c-1.15,0-1.45-0.46-1.45-1.05
		v-0.02c0-0.93-0.65-1.61-2.02-1.61c-1.35,0-2.02,0.65-2.04,1.71c-0.02,1.19,0.61,1.61,2.91,2.72l3.11,1.61
		c2.64,1.29,4.02,3.21,4.02,6.25c0,4.35-2.93,5.95-8.04,5.97c-4.66,0.02-7.55-1.17-7.55-4.9c0-1.01,0.22-1.77,1.64-1.77h2.65
		c1.07,0,1.43,0.34,1.43,1.07v0.02c0,1.27,0.81,1.67,2.08,1.67c1.49,0,2.04-0.56,2.06-1.69c0.02-1.13-0.59-1.94-2.42-2.84
		l-3.25-1.63c-2.58-1.23-4.38-2.86-4.38-6.19C54.86,12.82,57.52,10.83,62.55,10.81z"/>
	<path class="st0" d="M79.94,10.81c4.75-0.02,7.79,1.63,7.79,4.92c0,0.85-0.04,1.63-1.33,1.63h-2.91c-1.15,0-1.45-0.46-1.45-1.05
		v-0.02c0-0.93-0.65-1.61-2.02-1.61c-1.35,0-2.02,0.65-2.04,1.71c-0.02,1.19,0.61,1.61,2.91,2.72L84,20.73
		c2.64,1.29,4.02,3.21,4.02,6.25c0,4.35-2.93,5.95-8.04,5.97c-4.66,0.02-7.55-1.17-7.55-4.9c0-1.01,0.22-1.77,1.64-1.77h2.65
		c1.07,0,1.43,0.34,1.43,1.07v0.02c0,1.27,0.81,1.67,2.08,1.67c1.49,0,2.04-0.56,2.06-1.69c0.02-1.13-0.59-1.94-2.42-2.84
		l-3.25-1.63c-2.58-1.23-4.38-2.86-4.38-6.19C72.25,12.82,74.91,10.83,79.94,10.81z"/>
	<path class="st0" d="M90.2,5c0-1.35,0.46-1.9,1.68-1.9h10.94c0.59,0,1.09,0.52,1.09,1.15v3.37c0,0.6-0.5,1.13-1.09,1.13h-6.3v7.18
		h5.57c0.61,0,1.09,0.52,1.09,1.15v3.02c0,0.62-0.48,1.11-1.09,1.11h-5.57v9.35c0,0.69-0.36,2.02-1.66,2.02h-3.11
		c-1.09,0-1.55-0.54-1.55-1.71V5z"/>
	<path class="st0" d="M105.62,4.42c0-1.43,0.52-1.77,2.46-1.77h1.47c1.92,0,2.4,0.34,2.4,1.77v2.84c0,1.43-0.48,1.75-2.4,1.75h-1.47
		c-1.94,0-2.46-0.32-2.46-1.75V4.42z M105.62,12.98c0-1.43,0.52-1.77,2.46-1.77h1.47c1.92,0,2.4,0.34,2.4,1.77v17.88
		c0,1.43-0.48,1.73-2.4,1.73h-1.47c-1.94,0-2.46-0.3-2.46-1.73V12.98z"/>
	<path class="st0" d="M113.72,12.36c0-0.62,0.42-1.15,0.91-1.15h1.25l0.65-3.55c0.18-1.01,0.75-1.29,1.53-1.29h2.18
		c0.83,0,1.64,0.34,1.64,1.77v3.06h1.7c0.65,0,1.03,0.2,1.03,1.17v2.3c0,0.97-0.48,1.13-1.03,1.13h-1.7v10.62
		c0,1.17,0.5,1.57,1.21,1.57h0.69c0.52,0,0.87,0.14,0.87,0.91v2.2c0,0.99-0.36,1.47-1.58,1.47h-2.2c-4.26,0-5.25-2.14-5.25-6.25
		V15.81h-0.77c-0.77,0-1.13-0.54-1.13-1.13V12.36z"/>
	<path class="st0" d="M149.56,22.22c0,8.95-2.44,10.72-8.6,10.72c-8.28,0-8.7-3.23-8.7-15.12c0-11.55,0.28-15.16,8.72-15.16
		c7.03,0,8.58,2.04,8.58,9.94c0,0.89-0.2,1.29-1.19,1.29h-3.57c-0.79,0-1.45-0.12-1.45-1.53v-1.59c0-2.28-0.42-3-2.22-3
		c-2.14,0-2.32,1.13-2.32,4.88V23c0,3.81,0.18,4.84,2.32,4.84c1.7,0,2.22-0.85,2.22-2.98v-2.04c0-1.39,0.65-1.53,1.45-1.53h3.57
		C149.36,21.29,149.56,21.69,149.56,22.22z"/>
	<path class="st0" d="M151.8,3.79c0-1.55,0.69-1.73,2.42-1.73h1.51c1.88,0,2.4,0.42,2.4,1.77v8.39c1.09-0.95,2.67-1.43,4.83-1.41
		c4.22,0.02,5.86,1.98,5.86,6.21v13.85c0,1.43-0.5,1.73-2.4,1.73h-1.49c-1.92,0-2.42-0.3-2.42-1.73V18.63c0-2-0.59-2.52-1.8-2.52
		c-1.33,0-2.28,0.67-2.6,1.15v13.61c0,1.53-0.65,1.73-2.4,1.73h-1.51c-1.82,0-2.42-0.24-2.42-1.73V3.79z"/>
	<path class="st0" d="M179.04,18.97h2.77V17.4c0-1.43-0.1-2.32-2.16-2.32c-1.29,0-2.02,0.34-2.02,1.35v0.32
		c0,0.83-0.65,0.93-1.45,0.93h-2.95c-0.99,0-1.39-0.36-1.39-1.55c0-2.8,1.7-5.32,7.92-5.32c6.74,0,8.42,1.94,8.42,6.85v14.17
		c0,0.4-0.34,0.75-0.93,0.75h-0.52c-1.07,0-2.85-0.38-3.31-1.37l-0.1-0.2c-0.69,1.07-2.48,1.94-5.27,1.94
		c-4.75,0-7.17-1.94-7.17-6.75C170.89,22.26,172.52,18.97,179.04,18.97z M180.01,22.52c-2.04,0-2.65,0.81-2.65,2.56v0.79
		c0,1.11,0.4,2.38,2.1,2.38c1.43,0,2.36-0.48,2.36-2.26v-3.47H180.01z"/>
	<path class="st0" d="M190.78,12.52c0-1.47,0.71-1.71,1.62-1.71c1.33,0,3.41,0.83,4.14,3.73c0.79-2.06,2.5-3.73,5.19-3.73h0.2
		c0.87,0,1.47,0.12,1.47,1.03v4.6c0,0.79-0.51,1.31-1.15,1.31c-0.44,0-1.45-0.44-2.16-0.44c-1.68,0-3.03,0.97-3.03,2.84v10.72
		c0,1.43-0.48,1.73-2.38,1.73h-1.49c-1.94,0-2.42-0.3-2.42-1.73V12.52z"/>
	<path class="st0" d="M209.84,32.58h-3.09c-1.19,0-1.53-0.67-1.53-2.16V3.79c0-1.55,0.69-1.73,2.42-1.73h1.51
		c1.88,0,2.4,0.42,2.4,1.77v26.73C211.55,31.93,211.19,32.58,209.84,32.58z"/>
	<path class="st0" d="M213.33,12.36c0-0.62,0.42-1.15,0.91-1.15h1.25l0.65-3.55c0.18-1.01,0.75-1.29,1.53-1.29h2.18
		c0.83,0,1.64,0.34,1.64,1.77v3.06h1.7c0.65,0,1.03,0.2,1.03,1.17v2.3c0,0.97-0.48,1.13-1.03,1.13h-1.7v10.62
		c0,1.17,0.5,1.57,1.21,1.57h0.69c0.52,0,0.87,0.14,0.87,0.91v2.2c0,0.99-0.36,1.47-1.59,1.47h-2.2c-4.26,0-5.25-2.14-5.25-6.25
		V15.81h-0.77c-0.77,0-1.13-0.54-1.13-1.13V12.36z"/>
	<path class="st0" d="M234.94,32.94c-7.45,0.04-8.99-3-8.99-11.01c0-8.63,1.86-11.05,8.66-11.13c7.51-0.08,8.96,2.92,8.96,11.05
		C243.56,30.32,241.62,32.82,234.94,32.94z M237,18.93c0-2.42-0.36-3.43-2.24-3.43c-1.88,0-2.28,0.99-2.28,3.45v5.93
		c0,2.44,0.48,3.37,2.34,3.37c1.7,0,2.18-0.93,2.18-3.39V18.93z"/>
	<path class="st0" d="M245.96,12.52c0-1.31,0.65-1.71,1.72-1.71c1.13,0,2.65,0.62,3.74,2.14c1.05-1.33,2.87-2.16,5.69-2.14
		c4.22,0.02,5.86,1.98,5.86,6.21v13.85c0,1.43-0.5,1.73-2.4,1.73h-1.49c-1.92,0-2.42-0.3-2.42-1.73V18.63c0-2-0.59-2.52-1.8-2.52
		c-1.33,0-2.28,0.67-2.6,1.15v13.61c0,1.43-0.48,1.73-2.4,1.73h-1.47c-1.94,0-2.46-0.3-2.46-1.73V12.52z"/>
</g>
</svg>
